<svg width="1440" height="1020" viewBox="0 0 1440 1020" fill="none" xmlns="http://www.w3.org/2000/svg">
<g clip-path="url(#clip0_40_33)">
<path d="M0 834.7H131.2V793.9H262.4V895.9H392V783.7H523.2V906.1H654.4V834.7H785.6V793.9H916.8V844.9H1048V895.9H1177.6V834.7H1308.8H1440V793.9V1020H1308.8H1177.6H1048H916.8H785.6H654.4H523.2H392H262.4H131.2H0V834.7Z" fill="#FA7268"/>
<path d="M0 610.3H131.2V712.3H262.4V722.5H392V702.1H523.2H654.4V661.3H785.6V691.9H916.8V732.7H1048V712.3H1177.6V691.9H1308.8V661.3H1440V702.1V797.3V838.1H1308.8H1177.6V899.3H1048V848.3H916.8V797.3H785.6V838.1H654.4V909.5H523.2V787.1H392V899.3H262.4V797.3H131.2V838.1H0V610.3Z" fill="#EA5E66"/>
<path d="M0 345.1H131.2V304.3H262.4V518.5H392V538.9H523.2V375.7H654.4V355.3H785.6V294.1H916.8V457.3H1048V487.9H1177.6V406.3H1308.8V345.1H1440V498.1V705.5V664.7H1308.8V695.3H1177.6V715.7H1048V736.1H916.8V695.3H785.6V664.7H654.4V705.5H523.2H392V725.9H262.4V715.7H131.2V613.7H0V345.1Z" fill="#D84A64"/>
<path d="M0 263.5H131.2V192.1H262.4V416.5H392V385.9H523.2V314.5H654.4V263.5H785.6V161.5H916.8V365.5H1048V426.7H1177.6V253.3H1308.8V171.7H1440V355.3V501.5V348.5H1308.8V409.7H1177.6V491.3H1048V460.7H916.8V297.5H785.6V358.7H654.4V379.1H523.2V542.3H392V521.9H262.4V307.7H131.2V348.5H0V263.5Z" fill="#C53762"/>
<path d="M0 -1.70004H131.2H262.4H392H523.2H654.4H785.6H916.8H1048H1177.6H1308.8H1440V358.7V175.1H1308.8V256.7H1177.6V430.1H1048V368.9H916.8V164.9H785.6V266.9H654.4V317.9H523.2V389.3H392V419.9H262.4V195.5H131.2V266.9H0V-1.70004Z" fill="#B0235F"/>
</g>
<defs>
<clipPath id="clip0_40_33">
<rect width="1440" height="1020" fill="white" transform="matrix(1 0 0 -1 0 1020)"/>
</clipPath>
</defs>
</svg>
